<?xml version="1.0" encoding="utf-8"?>
<!-- Generator: Adobe Illustrator 28.2.0, SVG Export Plug-In . SVG Version: 6.00 Build 0)  -->
<svg version="1.1" id="Calque_1" xmlns="http://www.w3.org/2000/svg" xmlns:xlink="http://www.w3.org/1999/xlink" x="0px" y="0px"
	 viewBox="0 0 900 600" style="enable-background:new 0 0 900 600;" xml:space="preserve">
<style type="text/css">
	.st0{fill:none;stroke:#000000;stroke-miterlimit:10;}
</style>
<path class="st0" d="M661.6,475.6c-17.6,29.6-54.7,54.9-91.6,41.6c-26-11.8-40-38.1-51.5-63.1c-14.5,32.8-33.9,75.4-76.2,73.7
	c-26.8-1.1-42.8-28.7-54.4-49.8c-12.6-27-6.6-57.1-7.1-85.9c-10.1-3.6-20-7-30.2-10.1c-2.8-0.8-6.2-1.3-9-0.5
	c-16.9,4.8-34,8.6-51.6,7.4c-13.1-0.7-25.6-4.4-38.7-4.8c33,50.7-5,140.7-64.4,152.5c-53.2,10.6-94.9-36.1-115.3-80
	c-12.9-28-8.5-57.6,2.5-85.5c-14.7-9.8-28.1-20.9-35.7-37.6c13.3,9.6,26.7,18.7,41.6,25.6c27.9-45.8,101.6-99.2,146.1-45.3
	c10.9,13.8,23.2,28.4,22.8,47c24.9,7.3,48.8,2.9,73.7-3.5c-6.8-11.3-15.7-20.1-18.8-33.2c-8.9-27.2,26.3-60.6,49.5-37.9
	c22.7,23.3,39.7,51.4,14.4,80.2c5.8,1.1,16.3-0.1,16.3-0.1c8.6-22.5,11.5-65.2,35.7-74.8c21.2-9,37.2,15.8,44.9,32.4
	c9.1,36.2-30.5,59.7-60.8,67c-5.2,23.6-11.6,91.1,5.5,108.4c24,12.5,52.5-3.6,66.3-24.1c36.4-54.5,50.3-120.9,53.4-185.4
	c-98.1-33.9-158.9-130.6-177.7-229.3c-0.6-3.2-21.2-96.4-21.7-99.7c0.4-0.3,0.9-0.5,1.3-0.8c6.7,5,11.8,42.1,33.4,118.8
	c24.8,92.8,78,176.6,167.5,190.8c5.5-47.9,11-96.5,16.6-145.9c10,9.3,19.7,18.7,18.6,33.6c-2,38.7-4,77.3-6.8,116
	c36.9,0.5,69.1-18.6,104.9-23.4c24-24.2,58.5-36.1,91.7-21.7c73.1,34.3,96.7,118.4,106.5,192.2c3,17.3,3.2,34.7,0.2,52.1
	C838,583.2,706.4,567.8,661.6,475.6L661.6,475.6L661.6,475.6z M759.9,525.5c-29.7-33.9-53.4-75.5-36.4-121
	c11.3-34.4,41.4-48.2,75-35.3c21.2,8,33.8,27.1,47,44.4c-3.8-44.1-12.3-110.6-43.4-143.6c-28.2-25.5-66.6-31.6-99.9-11.8
	c11.8,15.3,25.6,26.6,30,45.5c4.6,21.9-12.1,37.3-33.5,30.8c-17.5-5-40-37.1-40.8-55.4c-32.5,13.2-65.2,22-100.1,16.7
	c-5.2,33.2-11.2,65.8-18.1,98.6c-2.6,28.7-9.2,58.9,0.8,86.9c7.7,15.3,29.1,16.7,44.1,13.8c30.9-6.7,51-25.9,62.3-54.9
	c-2.1-22.8-1.2-64.2,12.7-89.2c1.4,0.6,2.2,0.7,2.5,1.1c5.2,6.9,10.5,13.7,15.5,20.8c0.9,1.3,1,3.5,1,5.3
	C657.7,475.4,737.6,526.6,759.9,525.5L759.9,525.5L759.9,525.5z M737.6,459.8c-0.5,14.6,2.5,32.9,12.3,45.1
	c28.2,22.4,70.4,4.1,83.4-27.9c6.6-15.6,9.1-32,6.7-48.4c-1.7-26.9-14.8-33.8-39.9-39C760.1,383.1,735,423,737.6,459.8L737.6,459.8
	L737.6,459.8z M108.2,369.5c30.9,8.1,64.2,13.7,94.4,0.4c21.6-6.2,43.6-46.8,10.8-52.1c-42.2-9.1-79.6,20.7-105.1,51.6L108.2,369.5
	L108.2,369.5z M329.3,354.3c23.1-8.1,35.7-29.3,30.3-50.4c-22.4-4.7-42.5,19.5-37.1,41C323.5,348.8,324.5,352.9,329.3,354.3
	L329.3,354.3L329.3,354.3z M687.2,273.4c-8.3,11.6-10.9,22.8-9,34.9c17.8,11.3,40-5.8,35-25.4C710.6,276.1,694,276.1,687.2,273.4
	L687.2,273.4z M412.8,354.9c13.4-3.8,36.9-28.9,32.8-40.1C431.7,313.5,413.1,339.5,412.8,354.9L412.8,354.9L412.8,354.9z"/>
<path class="st0" d="M80,359.2c0,0-3.3,3.6-5.9,12"/>
<path class="st0" d="M108.2,369.5c-27.4,38.3-41,100.7,3,131.3c76.3,48.8,149.5-48.4,130.2-121.3c-37.9,36.4-98.5,23.6-142.1,4.8"/>
<path class="st0" d="M249,360.9c0,0,0.9,11.4-9.8,20.7"/>
<path class="st0" d="M241.3,379.3c0,0,4.3,4.5,9.9,4.9"/>
<path class="st0" d="M329.3,354.3c0,0,4,5.7,38.5,12.2"/>
<path class="st0" d="M322.7,357.4c0,0,8.9,18.6,27,24.2"/>
<path class="st0" d="M414.5,346.1c0,0-7.8,31.1-10.5,45"/>
<path class="st0" d="M385.8,360.4c0,0-4.7,16-5,31.7"/>
<path class="st0" d="M522,355.4c0,0-11.3,82.1-3.5,98.8"/>
<path class="st0" d="M646.5,438.3c0,0,5.5,22.6,17.2,41"/>
<path class="st0" d="M759.9,525.5c0,0,36,31.1,88.2-14.8"/>
<path class="st0" d="M845.4,413.6c0,10-3.9,32.3-5.4,39.8"/>
<path class="st0" d="M702.1,258.3c0,0-12.5-11.3-36.8-8.4"/>
<path class="st0" d="M687.2,273.4c0,0-13-1.2-29.4,5.9"/>
<path class="st0" d="M557.7,296c0,0-23.9-4.3-32.3-7.4"/>
<path class="st0" d="M560.4,273.4c0,0-25.3-2.3-35.2-4.7"/>
</svg>
