<?xml version="1.0" encoding="UTF-8"?>
<svg id="Calque_1" data-name="Calque 1" xmlns="http://www.w3.org/2000/svg" viewBox="0 0 35 35">
  <defs>
    <style>
      .cls-1 {
        fill: #0a0a08;
      }
    </style>
  </defs>
  <path d="m24.9,3.4h-14.8c-3.7,0-6.7,3-6.7,6.7v14.8c0,3.7,3,6.7,6.7,6.7h14.8c3.7,0,6.7-3,6.7-6.7v-14.8c0-3.7-3-6.7-6.7-6.7Zm5.3,21.5c0,3-2.4,5.4-5.4,5.4h-14.7c-3,0-5.4-2.4-5.4-5.4v-14.8c0-3,2.4-5.4,5.4-5.4h14.8c3,0,5.4,2.4,5.4,5.4v14.8h-.1Z"/>
  <path class="cls-1" d="m17.5,10.19c2.38,0,2.66,0,3.61.05.87.04,1.34.19,1.66.31.42.16.71.36,1.03.67s.51.61.67,1.03c.12.31.27.79.31,1.66.04.94.05,1.22.05,3.61s0,2.66-.05,3.61c-.04.87-.19,1.34-.31,1.66-.16.42-.36.71-.67,1.03-.31.31-.61.51-1.03.67-.31.12-.79.27-1.66.31-.94.04-1.22.05-3.61.05s-2.66,0-3.61-.05c-.87-.04-1.34-.19-1.66-.31-.42-.16-.71-.36-1.03-.67-.31-.31-.51-.61-.67-1.03-.12-.31-.27-.79-.31-1.66-.04-.94-.05-1.22-.05-3.61s0-2.66.05-3.61c.04-.87.19-1.34.31-1.66.16-.42.36-.71.67-1.03.31-.31.61-.51,1.03-.67.31-.12.79-.27,1.66-.31.94-.04,1.22-.05,3.61-.05m0-1.61c-2.42,0-2.73.01-3.68.05-.95.04-1.6.19-2.17.41-.59.23-1.08.53-1.58,1.03-.5.5-.8.99-1.03,1.58-.22.57-.37,1.22-.41,2.17-.04.95-.05,1.26-.05,3.68s.01,2.73.05,3.68c.04.95.19,1.6.41,2.17.23.59.53,1.08,1.03,1.58.5.5.99.8,1.58,1.03.57.22,1.22.37,2.17.41.95.04,1.26.05,3.68.05s2.73-.01,3.68-.05c.95-.04,1.6-.19,2.17-.41.59-.23,1.08-.53,1.58-1.03.5-.5.8-.99,1.03-1.58.22-.57.37-1.22.41-2.17.04-.95.05-1.26.05-3.68s-.01-2.73-.05-3.68c-.04-.95-.19-1.6-.41-2.17-.23-.59-.53-1.08-1.03-1.58-.5-.5-.99-.8-1.58-1.03-.57-.22-1.22-.37-2.17-.41-.95-.04-1.26-.05-3.68-.05Zm0,4.34c-2.53,0-4.58,2.05-4.58,4.58s2.05,4.58,4.58,4.58,4.58-2.05,4.58-4.58-2.05-4.58-4.58-4.58Zm0,7.56c-1.64,0-2.97-1.33-2.97-2.97s1.33-2.97,2.97-2.97,2.97,1.33,2.97,2.97-1.33,2.97-2.97,2.97Zm5.83-7.74c0,.59-.48,1.07-1.07,1.07s-1.07-.48-1.07-1.07.48-1.07,1.07-1.07,1.07.48,1.07,1.07Z"/>
</svg>