<?xml version="1.0" encoding="utf-8"?>
<!-- Generator: Adobe Illustrator 28.1.0, SVG Export Plug-In . SVG Version: 6.00 Build 0)  -->
<svg version="1.1" id="Calque_1" xmlns="http://www.w3.org/2000/svg" xmlns:xlink="http://www.w3.org/1999/xlink" x="0px" y="0px"
	 viewBox="0 0 23 39.1" style="enable-background:new 0 0 23 39.1;" xml:space="preserve">
<style type="text/css">
	.st0{fill:#7382DC;}
</style>
<path class="st0" d="M19.5,0c2,0,3.5,1.5,3.5,3.4c0,2.1-1.5,3.7-3.5,3.7c-2,0-3.6-1.6-3.5-3.7C16,1.5,17.5,0,19.5,0z"/>
<path class="st0" d="M11.4,8c1.9-0.1,3.5,1.4,3.6,3.3c0.1,2.1-1.4,3.7-3.4,3.8C9.6,15.2,8,13.6,8,11.5C8,9.6,9.4,8.1,11.4,8z"/>
<path class="st0" d="M7,19.4c0.1,2.1-1.5,3.7-3.5,3.7c-1.9,0-3.4-1.5-3.5-3.4c-0.1-2,1.5-3.7,3.5-3.7C5.5,16,7,17.5,7,19.4L7,19.4z"
	/>
<path class="st0" d="M8,27.3c0.1-1.9,1.6-3.4,3.6-3.3c2,0,3.6,1.7,3.4,3.8c-0.1,2-1.6,3.4-3.6,3.4C9.4,31,7.9,29.4,8,27.3L8,27.3z"
	/>
<path class="st0" d="M23,35.5c0,2.1-1.6,3.6-3.6,3.6c-1.9,0-3.4-1.5-3.4-3.5c0-2,1.5-3.6,3.6-3.6C21.6,32,23,33.5,23,35.5z"/>
</svg>
