<?xml version="1.0" encoding="utf-8"?>
<!-- Generator: Adobe Illustrator 28.1.0, SVG Export Plug-In . SVG Version: 6.00 Build 0)  -->
<svg version="1.1" id="Calque_1" xmlns="http://www.w3.org/2000/svg" xmlns:xlink="http://www.w3.org/1999/xlink" x="0px" y="0px"
	 viewBox="0 0 23 39.1" style="enable-background:new 0 0 23 39.1;" xml:space="preserve">
<style type="text/css">
	.st0{fill:#7382DC;}
</style>
<path class="st0" d="M3.5,0C1.5,0,0,1.5,0,3.4c0,2.1,1.5,3.7,3.5,3.7c2,0,3.5-1.6,3.5-3.7C7,1.5,5.5,0,3.5,0z"/>
<path class="st0" d="M11.6,8C9.7,7.9,8.1,9.4,8,11.3c-0.1,2.1,1.4,3.7,3.4,3.8c2.1,0.1,3.6-1.5,3.6-3.6C15,9.6,13.6,8.1,11.6,8z"/>
<path class="st0" d="M16,19.4c-0.1,2.1,1.5,3.7,3.5,3.7c1.9,0,3.4-1.5,3.5-3.4c0.1-2-1.5-3.7-3.5-3.7C17.5,16,16,17.5,16,19.4
	L16,19.4z"/>
<path class="st0" d="M15,27.3c-0.1-1.9-1.6-3.4-3.6-3.3c-2,0-3.6,1.7-3.4,3.8c0.1,2,1.6,3.4,3.6,3.4C13.6,31,15.1,29.4,15,27.3
	L15,27.3z"/>
<path class="st0" d="M0,35.5c0,2.1,1.6,3.6,3.6,3.6c1.9,0,3.4-1.5,3.4-3.5c0-2-1.5-3.6-3.6-3.6C1.5,32,0,33.5,0,35.5z"/>
</svg>
