<?xml version="1.0" encoding="UTF-8"?>
<svg id="Calque_1" data-name="Calque 1" xmlns="http://www.w3.org/2000/svg" viewBox="0 0 333.06 188.28">
  <defs>
    <style>
      .cls-1 {
        fill: #7382dc;
      }
    </style>
  </defs>
  <path class="cls-1" d="M61.13,114.94c2.57,5.73,6.19,10.06,10.86,12.99,4.67,2.94,10.1,4.4,16.28,4.4,4.95,0,9.07-.8,12.33-2.39,3.27-1.59,5.69-3.62,7.27-6.08s2.54-5.1,2.89-7.9c.38-3.12,1.4-5.92,3.08-8.38,1.67-2.46,4.08-4.41,7.22-5.84,3.14-1.44,7-2.15,11.57-2.15h13.63c4.74,0,8.75.84,12.05,2.51,3.29,1.67,5.78,4.13,7.43,7.38,1.66,3.25,2.44,7.22,2.35,11.93-.32,11.64-3.65,22.58-9.99,32.8-6.34,10.22-15.49,18.46-27.43,24.71-11.94,6.25-26.07,9.37-42.39,9.37s-32.15-3.85-45.53-11.55-23.85-18.66-31.4-32.87C3.78,129.65,0,113.07,0,94.14s3.78-35.51,11.34-49.72c7.56-14.21,18.02-25.17,31.4-32.87C56.12,3.85,71.3,0,88.27,0s30.44,3.12,42.39,9.37c11.94,6.25,21.09,14.48,27.43,24.71,6.34,10.22,9.67,21.16,9.99,32.8.09,4.7-.69,8.68-2.35,11.93-1.65,3.25-4.13,5.71-7.43,7.38-3.3,1.67-7.31,2.51-12.05,2.51h-13.63c-4.57,0-8.43-.72-11.57-2.15-3.14-1.44-5.54-3.38-7.22-5.85-1.67-2.46-2.7-5.25-3.08-8.38-.35-2.81-1.31-5.44-2.89-7.9-1.58-2.46-4-4.49-7.27-6.08-3.26-1.59-7.37-2.39-12.33-2.39-6.18,0-11.61,1.47-16.28,4.4s-8.29,7.26-10.86,12.99c-2.57,5.73-3.86,12.66-3.86,20.8s1.29,15.07,3.86,20.8Z"/>
  <path class="cls-1" d="M199.33,176.68c-13.49-7.73-24.14-18.72-31.95-32.97-7.81-14.25-11.72-30.77-11.72-49.58s3.91-35.33,11.72-49.58c7.81-14.25,18.46-25.23,31.95-32.97,13.49-7.73,28.5-11.6,45.03-11.6s31.54,3.87,45.04,11.6c13.49,7.73,24.14,18.72,31.94,32.97,7.81,14.25,11.72,30.77,11.72,49.58s-3.9,35.33-11.72,49.58c-7.81,14.25-18.46,25.23-31.94,32.97-13.49,7.73-28.5,11.6-45.04,11.6s-31.54-3.87-45.03-11.6ZM260.27,127.72c4.77-2.82,8.54-7.07,11.34-12.75,2.79-5.68,4.19-12.62,4.19-20.83s-1.4-15.15-4.19-20.83c-2.79-5.68-6.57-9.93-11.34-12.76s-10.07-4.24-15.9-4.24-11.14,1.41-15.9,4.24-8.54,7.08-11.33,12.76c-2.79,5.68-4.19,12.62-4.19,20.83s1.4,15.15,4.19,20.83c2.79,5.68,6.57,9.93,11.33,12.75,4.77,2.82,10.07,4.24,15.9,4.24s11.14-1.41,15.9-4.24Z"/>
</svg>