<?xml version="1.0" encoding="utf-8"?>
<!-- Generator: Adobe Illustrator 28.1.0, SVG Export Plug-In . SVG Version: 6.00 Build 0)  -->
<svg version="1.1" id="Calque_1" xmlns="http://www.w3.org/2000/svg" xmlns:xlink="http://www.w3.org/1999/xlink" x="0px" y="0px"
	 viewBox="0 0 83.4 64" style="enable-background:new 0 0 83.4 64;" xml:space="preserve">
<g>
	<path d="M3.6,24.2c-0.7-0.4-1.3-1-1.7-1.7c-0.4-0.7-0.7-1.5-0.7-2.4c0-0.9,0.2-1.7,0.7-2.4c0.4-0.7,1-1.3,1.7-1.7s1.5-0.7,2.4-0.7
		s1.7,0.2,2.4,0.7c0.7,0.4,1.3,1,1.7,1.7c0.4,0.7,0.7,1.5,0.7,2.4c0,0.9-0.2,1.7-0.7,2.4c-0.4,0.7-1,1.3-1.7,1.7S6.9,24.9,6,24.9
		S4.3,24.6,3.6,24.2z M3.6,36.1c-0.7-0.4-1.3-1-1.7-1.7c-0.4-0.7-0.7-1.5-0.7-2.4c0-0.9,0.2-1.7,0.7-2.4c0.4-0.7,1-1.3,1.7-1.7
		s1.5-0.7,2.4-0.7s1.7,0.2,2.4,0.7c0.7,0.4,1.3,1,1.7,1.7c0.4,0.7,0.7,1.5,0.7,2.4c0,0.9-0.2,1.7-0.7,2.4c-0.4,0.7-1,1.3-1.7,1.7
		c-0.7,0.4-1.5,0.7-2.4,0.7S4.3,36.5,3.6,36.1z M3.6,48c-0.7-0.4-1.3-1-1.7-1.7s-0.7-1.5-0.7-2.4s0.2-1.7,0.7-2.4
		c0.4-0.7,1-1.3,1.7-1.7c0.7-0.4,1.5-0.7,2.4-0.7s1.7,0.2,2.4,0.7c0.7,0.4,1.3,1,1.7,1.7c0.4,0.7,0.7,1.5,0.7,2.4s-0.2,1.7-0.7,2.4
		c-0.4,0.7-1,1.3-1.7,1.7c-0.7,0.4-1.5,0.7-2.4,0.7S4.3,48.5,3.6,48z M15.5,12.3c-0.7-0.4-1.3-1-1.7-1.7c-0.4-0.7-0.7-1.5-0.7-2.4
		s0.2-1.7,0.7-2.4c0.4-0.7,1-1.3,1.7-1.7c0.7-0.4,1.5-0.7,2.4-0.7s1.7,0.2,2.4,0.7c0.7,0.4,1.3,1,1.7,1.7c0.4,0.7,0.7,1.5,0.7,2.4
		s-0.2,1.7-0.7,2.4c-0.4,0.7-1,1.3-1.7,1.7c-0.7,0.4-1.5,0.7-2.4,0.7S16.2,12.7,15.5,12.3z M15.5,59.9c-0.7-0.4-1.3-1-1.7-1.7
		c-0.4-0.7-0.7-1.5-0.7-2.4s0.2-1.7,0.7-2.4c0.4-0.7,1-1.3,1.7-1.7c0.7-0.4,1.5-0.7,2.4-0.7s1.7,0.2,2.4,0.7c0.7,0.4,1.3,1,1.7,1.7
		c0.4,0.7,0.7,1.5,0.7,2.4s-0.2,1.7-0.7,2.4c-0.4,0.7-1,1.3-1.7,1.7c-0.7,0.4-1.5,0.7-2.4,0.7S16.2,60.4,15.5,59.9z M27.4,24.2
		c-0.7-0.4-1.3-1-1.7-1.7C25.3,21.8,25,21,25,20.1c0-0.9,0.2-1.7,0.7-2.4c0.4-0.7,1-1.3,1.7-1.7s1.5-0.7,2.4-0.7
		c0.9,0,1.7,0.2,2.4,0.7c0.7,0.4,1.3,1,1.7,1.7c0.4,0.7,0.7,1.5,0.7,2.4c0,0.9-0.2,1.7-0.7,2.4c-0.4,0.7-1,1.3-1.7,1.7
		c-0.7,0.4-1.5,0.7-2.4,0.7C28.9,24.9,28.1,24.6,27.4,24.2z M27.4,48c-0.7-0.4-1.3-1-1.7-1.7S25,44.8,25,43.9s0.2-1.7,0.7-2.4
		c0.4-0.7,1-1.3,1.7-1.7c0.7-0.4,1.5-0.7,2.4-0.7c0.9,0,1.7,0.2,2.4,0.7c0.7,0.4,1.3,1,1.7,1.7c0.4,0.7,0.7,1.5,0.7,2.4
		s-0.2,1.7-0.7,2.4c-0.4,0.7-1,1.3-1.7,1.7c-0.7,0.4-1.5,0.7-2.4,0.7C28.9,48.7,28.1,48.5,27.4,48z"/>
	<path d="M51.3,24.2c-0.7-0.4-1.3-1-1.7-1.7c-0.4-0.7-0.7-1.5-0.7-2.4c0-0.9,0.2-1.7,0.7-2.4c0.4-0.7,1-1.3,1.7-1.7s1.5-0.7,2.4-0.7
		c0.9,0,1.7,0.2,2.4,0.7c0.7,0.4,1.3,1,1.7,1.7c0.4,0.7,0.7,1.5,0.7,2.4c0,0.9-0.2,1.7-0.7,2.4c-0.4,0.7-1,1.3-1.7,1.7
		s-1.5,0.7-2.4,0.7C52.8,24.9,52,24.6,51.3,24.2z M51.3,36.1c-0.7-0.4-1.3-1-1.7-1.7c-0.4-0.7-0.7-1.5-0.7-2.4
		c0-0.9,0.2-1.7,0.7-2.4c0.4-0.7,1-1.3,1.7-1.7s1.5-0.7,2.4-0.7c0.9,0,1.7,0.2,2.4,0.7c0.7,0.4,1.3,1,1.7,1.7
		c0.4,0.7,0.7,1.5,0.7,2.4c0,0.9-0.2,1.7-0.7,2.4c-0.4,0.7-1,1.3-1.7,1.7c-0.7,0.4-1.5,0.7-2.4,0.7C52.8,36.8,52,36.5,51.3,36.1z
		 M51.3,48c-0.7-0.4-1.3-1-1.7-1.7c-0.4-0.7-0.7-1.5-0.7-2.4s0.2-1.7,0.7-2.4c0.4-0.7,1-1.3,1.7-1.7c0.7-0.4,1.5-0.7,2.4-0.7
		c0.9,0,1.7,0.2,2.4,0.7c0.7,0.4,1.3,1,1.7,1.7c0.4,0.7,0.7,1.5,0.7,2.4s-0.2,1.7-0.7,2.4s-1,1.3-1.7,1.7c-0.7,0.4-1.5,0.7-2.4,0.7
		C52.8,48.7,52,48.5,51.3,48z M63.2,12.3c-0.7-0.4-1.3-1-1.7-1.7c-0.4-0.7-0.7-1.5-0.7-2.4s0.2-1.7,0.7-2.4c0.4-0.7,1-1.3,1.7-1.7
		s1.5-0.7,2.4-0.7c0.9,0,1.7,0.2,2.4,0.7c0.7,0.4,1.3,1,1.7,1.7c0.4,0.7,0.7,1.5,0.7,2.4s-0.2,1.7-0.7,2.4c-0.4,0.7-1,1.3-1.7,1.7
		c-0.7,0.4-1.5,0.7-2.4,0.7C64.7,12.9,63.9,12.7,63.2,12.3z M63.2,59.9c-0.7-0.4-1.3-1-1.7-1.7c-0.4-0.7-0.7-1.5-0.7-2.4
		s0.2-1.7,0.7-2.4c0.4-0.7,1-1.3,1.7-1.7c0.7-0.4,1.5-0.7,2.4-0.7c0.9,0,1.7,0.2,2.4,0.7c0.7,0.4,1.3,1,1.7,1.7
		c0.4,0.7,0.7,1.5,0.7,2.4s-0.2,1.7-0.7,2.4c-0.4,0.7-1,1.3-1.7,1.7c-0.7,0.4-1.5,0.7-2.4,0.7C64.7,60.6,63.9,60.4,63.2,59.9z
		 M75.1,24.2c-0.7-0.4-1.3-1-1.7-1.7c-0.4-0.7-0.7-1.5-0.7-2.4c0-0.9,0.2-1.7,0.7-2.4c0.4-0.7,1-1.3,1.7-1.7
		c0.7-0.4,1.5-0.7,2.4-0.7c0.9,0,1.7,0.2,2.4,0.7c0.7,0.4,1.3,1,1.7,1.7c0.4,0.7,0.7,1.5,0.7,2.4c0,0.9-0.2,1.7-0.7,2.4
		c-0.4,0.7-1,1.3-1.7,1.7c-0.7,0.4-1.5,0.7-2.4,0.7C76.6,24.9,75.8,24.6,75.1,24.2z M75.1,36.1c-0.7-0.4-1.3-1-1.7-1.7
		c-0.4-0.7-0.7-1.5-0.7-2.4c0-0.9,0.2-1.7,0.7-2.4c0.4-0.7,1-1.3,1.7-1.7c0.7-0.4,1.5-0.7,2.4-0.7c0.9,0,1.7,0.2,2.4,0.7
		c0.7,0.4,1.3,1,1.7,1.7c0.4,0.7,0.7,1.5,0.7,2.4c0,0.9-0.2,1.7-0.7,2.4c-0.4,0.7-1,1.3-1.7,1.7c-0.7,0.4-1.5,0.7-2.4,0.7
		C76.6,36.8,75.8,36.5,75.1,36.1z M75.1,48c-0.7-0.4-1.3-1-1.7-1.7s-0.7-1.5-0.7-2.4s0.2-1.7,0.7-2.4c0.4-0.7,1-1.3,1.7-1.7
		c0.7-0.4,1.5-0.7,2.4-0.7c0.9,0,1.7,0.2,2.4,0.7c0.7,0.4,1.3,1,1.7,1.7s0.7,1.5,0.7,2.4s-0.2,1.7-0.7,2.4c-0.4,0.7-1,1.3-1.7,1.7
		c-0.7,0.4-1.5,0.7-2.4,0.7C76.6,48.7,75.8,48.5,75.1,48z"/>
</g>
</svg>
