<?xml version="1.0" encoding="UTF-8"?>
<svg id="Calque_1" data-name="Calque 1" xmlns="http://www.w3.org/2000/svg" viewBox="0 0 35 35">
  <g>
    <path d="m25.07,25.22v-5.62c0-2.77-.62-4.91-3.84-4.91-1.52,0-2.59.8-3.03,1.69h0v-1.43h-3.03v10.26h3.21v-5.08c0-1.34.27-2.68,1.87-2.68s1.69,1.52,1.69,2.68v5h3.12v.09Z"/>
    <rect x="10" y="14.96" width="3.21" height="10.26"/>
    <path d="m11.6,9.78c-1.07,0-1.87.8-1.87,1.87s.8,1.87,1.87,1.87,1.87-.8,1.87-1.87c-.09-.98-.89-1.87-1.87-1.87Z"/>
  </g>
  <path d="m24.9,3.4h-14.8c-3.7,0-6.7,3-6.7,6.7v14.8c0,3.7,3,6.7,6.7,6.7h14.8c3.7,0,6.7-3,6.7-6.7v-14.8c0-3.7-3-6.7-6.7-6.7Zm5.3,21.5c0,3-2.4,5.4-5.4,5.4h-14.8c-3,0-5.4-2.4-5.4-5.4v-14.8c0-3,2.4-5.4,5.4-5.4h14.8c3,0,5.4,2.4,5.4,5.4v14.8Z"/>
</svg>