<?xml version="1.0" encoding="UTF-8"?>
<svg id="Calque_1" data-name="Calque 1" xmlns="http://www.w3.org/2000/svg" viewBox="0 0 35 35">
  <path d="m24.55,11.1h-14.29c-.98,0-1.78.86-1.78,1.91v8.98c0,1.05.8,1.91,1.78,1.91h14.29c.98,0,1.78-.86,1.78-1.91v-8.98c0-.06-.01-.12-.02-.18-.05-.2-.1-.4-.14-.61-.28-.66-.9-1.13-1.61-1.13Zm-.18,1.24l-5.33,5.64c-.89.96-2.31.96-3.2,0l-5.33-5.64h13.85Zm-14.65,9.37v-8.41l3.91,4.21-3.91,4.21Zm.8.86l3.91-4.21.53.57c1.33,1.43,3.55,1.43,4.88,0l.62-.57,3.91,4.21h-13.85Zm14.65-.76l-3.91-4.21,3.91-4.3v8.51Z"/>
  <path d="m24.8,3.4h-14.8c-3.7,0-6.7,3-6.7,6.7v14.8c0,3.7,3,6.7,6.7,6.7h14.8c3.7,0,6.7-3,6.7-6.7v-14.8c0-3.7-3-6.7-6.7-6.7Zm5.4,21.6c0,3-2.4,5.4-5.4,5.4h-14.8c-3,0-5.4-2.4-5.4-5.4v-14.9c.1-2.9,2.5-5.3,5.4-5.3h14.8c3,0,5.4,2.4,5.4,5.4v14.8Z"/>
</svg>