<?xml version="1.0" encoding="UTF-8"?>
<svg id="Calque_1" data-name="Calque 1" xmlns="http://www.w3.org/2000/svg" viewBox="0 0 35 35">
  <defs>
    <style>
      .cls-1 {
        stroke: #000;
        stroke-miterlimit: 10;
        stroke-width: .75px;
      }
    </style>
  </defs>
  <path d="m24.9,3.4h-14.8c-3.7,0-6.7,3-6.7,6.7v14.8c0,3.7,3,6.7,6.7,6.7h14.8c3.7,0,6.7-3,6.7-6.7v-14.8c0-3.7-3-6.7-6.7-6.7Zm5.3,21.5c0,3-2.4,5.4-5.4,5.4h-14.8c-3,0-5.4-2.4-5.4-5.4v-14.8c0-3,2.4-5.4,5.4-5.4h14.8c3,0,5.4,2.4,5.4,5.4v14.8Z"/>
  <path class="cls-1" d="m23.1,19.55c-.37-.37-.89-.57-1.41-.54-.52.03-1.01.28-1.35.68l-.58.72c-.27.33-.74.41-1.1.19-1.79-1.07-3.29-2.58-4.36-4.36-.22-.36-.13-.84.2-1.11l.71-.58c.41-.33.66-.82.68-1.35.03-.52-.17-1.04-.54-1.41l-1.56-1.56c-.43-.43-1.01-.62-1.61-.52-.6.1-1.09.46-1.36,1.01l-.62,1.24c-.17.35-.32.72-.42,1.1-.37,1.35-.19,2.75.5,3.97l.25.44c1.64,2.88,4.03,5.26,6.9,6.9l.44.25c.8.46,1.69.69,2.58.69.46,0,.93-.06,1.39-.19.38-.1.74-.24,1.09-.42l1.25-.62c.54-.27.91-.77,1.01-1.36.1-.6-.09-1.18-.52-1.61l-1.56-1.56Zm1.34,3.05c-.06.35-.28.65-.6.81l-1.25.62c-.3.15-.63.27-.95.36-1.15.32-2.36.16-3.4-.43l-.44-.25c-2.76-1.57-5.05-3.86-6.62-6.62l-.25-.44c-.59-1.04-.74-2.24-.43-3.4.09-.33.21-.65.37-.96l.62-1.24c.16-.32.46-.54.81-.6.35-.06.7.05.96.31l1.56,1.56c.22.22.34.52.32.84-.02.32-.16.6-.41.8l-.71.58c-.62.5-.78,1.4-.37,2.08,1.13,1.89,2.73,3.49,4.62,4.62.68.41,1.57.25,2.07-.37l.58-.72c.2-.25.48-.39.8-.41.31-.01.61.1.84.32l1.56,1.56c.25.25.37.6.31.96h0Z"/>
</svg>